<svg id="svg" version="1.1" xmlns="http://www.w3.org/2000/svg" xmlns:xlink="http://www.w3.org/1999/xlink" width="400" height="369.7044334975369" viewBox="0, 0, 400,369.7044334975369"><g id="svgg"><path id="path0" d="M301.564 74.461 C 300.833 75.129,298.235 77.531,296.272 79.354 C 295.618 79.962,294.793 80.712,294.439 81.021 C 294.085 81.330,293.441 81.921,293.008 82.333 C 292.198 83.105,289.640 85.450,288.858 86.137 C 288.615 86.350,287.889 87.025,287.243 87.637 C 285.982 88.833,283.153 91.433,282.112 92.353 C 281.761 92.663,281.001 93.367,280.423 93.917 C 279.845 94.467,278.786 95.442,278.070 96.083 C 277.355 96.725,276.577 97.445,276.343 97.682 C 276.108 97.920,275.504 98.474,275.000 98.914 C 274.496 99.354,273.518 100.247,272.828 100.898 C 272.137 101.550,271.158 102.458,270.652 102.917 C 267.094 106.138,266.489 106.696,262.583 110.354 C 261.850 111.041,261.069 111.748,260.848 111.926 C 260.627 112.104,260.016 112.681,259.490 113.208 C 258.965 113.735,258.495 114.167,258.446 114.167 C 258.397 114.167,258.024 114.485,257.617 114.875 C 257.210 115.265,256.324 116.081,255.647 116.688 C 254.970 117.296,254.108 118.084,253.731 118.438 C 252.640 119.464,249.370 122.491,248.172 123.583 C 244.103 127.294,243.324 128.009,242.502 128.783 C 238.620 132.445,236.251 134.103,234.207 134.589 C 231.028 135.344,230.899 135.362,229.083 135.283 C 226.149 135.155,224.605 134.648,219.750 132.222 C 214.672 129.685,211.688 125.127,211.256 119.250 C 211.209 118.608,211.099 117.521,211.012 116.833 C 210.924 116.146,210.807 114.983,210.750 114.250 C 210.694 113.517,210.580 112.467,210.497 111.917 C 210.413 111.367,210.307 110.429,210.260 109.833 C 210.212 109.237,210.098 108.150,210.005 107.417 C 209.912 106.683,209.801 105.633,209.758 105.083 C 209.715 104.533,209.637 103.783,209.585 103.417 C 209.533 103.050,209.460 102.337,209.422 101.833 C 209.385 101.329,209.264 100.317,209.154 99.583 C 209.045 98.850,208.956 97.923,208.957 97.522 C 208.959 97.122,208.913 96.871,208.855 96.965 C 208.797 97.058,208.731 96.635,208.708 96.025 C 208.656 94.621,208.605 94.167,208.500 94.167 C 208.404 94.168,206.571 95.680,203.754 98.083 C 202.680 99.000,201.179 100.275,200.419 100.917 C 199.659 101.558,198.373 102.645,197.560 103.330 C 196.748 104.016,195.931 104.729,195.745 104.914 C 195.559 105.099,194.809 105.737,194.078 106.333 C 193.348 106.929,192.487 107.653,192.167 107.943 C 190.942 109.047,189.204 110.528,188.044 111.454 C 186.824 112.428,186.509 112.942,186.585 113.834 C 186.605 114.063,186.587 114.311,186.545 114.385 C 186.503 114.459,186.436 115.161,186.396 115.945 C 186.357 116.730,186.255 117.501,186.170 117.660 C 186.086 117.818,186.015 118.203,186.014 118.515 C 186.011 119.351,185.731 121.184,185.530 121.691 C 185.433 121.934,185.388 122.165,185.428 122.206 C 185.656 122.434,183.952 126.129,183.292 126.839 C 183.131 127.012,183.000 127.213,183.000 127.286 C 183.000 127.360,182.850 127.513,182.667 127.628 C 182.483 127.742,182.333 127.907,182.333 127.993 C 182.333 128.080,181.958 128.526,181.500 128.984 C 181.042 129.442,180.667 129.779,180.667 129.733 C 180.667 129.686,180.473 129.859,180.237 130.116 C 180.000 130.373,179.861 130.471,179.928 130.333 C 179.995 130.196,179.795 130.316,179.483 130.600 C 178.948 131.088,175.956 132.667,175.566 132.667 C 175.327 132.667,174.317 133.158,174.000 133.429 C 173.862 133.547,173.675 133.655,173.583 133.670 C 173.492 133.685,173.192 133.790,172.917 133.904 C 172.307 134.157,170.043 134.857,169.583 134.935 C 167.871 135.225,166.404 135.336,165.500 135.244 C 164.904 135.183,164.192 135.119,163.917 135.103 C 163.642 135.086,163.323 135.014,163.208 134.943 C 163.094 134.872,163.000 134.865,163.000 134.927 C 163.000 134.990,162.884 134.945,162.742 134.827 C 162.601 134.709,162.223 134.623,161.902 134.635 C 161.563 134.648,161.361 134.589,161.420 134.495 C 161.637 134.144,161.034 134.359,160.654 134.768 C 160.432 135.008,159.598 135.726,158.801 136.364 C 158.005 137.002,157.330 137.576,157.301 137.640 C 157.273 137.703,156.652 138.241,155.922 138.836 C 155.191 139.430,154.441 140.070,154.255 140.257 C 154.069 140.444,153.319 141.081,152.588 141.673 C 151.858 142.266,151.108 142.901,150.922 143.086 C 150.736 143.271,149.919 143.984,149.107 144.670 C 146.309 147.034,146.590 146.703,146.890 147.282 C 147.035 147.562,147.106 147.838,147.049 147.896 C 146.991 147.953,147.067 148.000,147.217 148.000 C 147.403 148.000,147.456 148.088,147.383 148.277 C 147.312 148.463,147.341 148.515,147.470 148.435 C 147.591 148.360,147.630 148.402,147.573 148.549 C 147.524 148.677,147.603 149.112,147.749 149.516 C 147.983 150.164,148.093 150.568,148.215 151.230 C 148.234 151.333,148.325 151.472,148.417 151.539 C 148.525 151.619,148.521 151.662,148.405 151.664 C 148.284 151.666,148.304 152.049,148.466 152.858 C 148.796 154.499,148.236 158.371,147.463 159.797 C 147.300 160.097,147.167 160.415,147.167 160.503 C 147.167 160.648,145.517 164.070,144.888 165.230 C 144.508 165.931,141.981 168.388,140.872 169.135 C 139.456 170.089,136.000 171.588,136.000 171.248 C 136.000 171.212,135.719 171.277,135.375 171.395 C 135.031 171.512,134.375 171.624,133.917 171.644 C 133.150 171.677,130.999 171.925,130.238 172.068 C 130.061 172.101,129.167 172.181,128.252 172.246 C 127.336 172.310,126.544 172.389,126.493 172.421 C 126.441 172.453,125.841 172.525,125.158 172.581 C 124.475 172.637,123.767 172.713,123.583 172.750 C 122.861 172.895,121.047 173.081,120.388 173.078 C 120.006 173.077,119.723 173.123,119.759 173.181 C 119.794 173.239,119.488 173.272,119.079 173.255 C 118.669 173.238,118.333 173.271,118.333 173.328 C 118.333 173.449,117.463 173.546,116.167 173.568 C 115.662 173.576,115.195 173.658,115.128 173.750 C 115.052 173.852,115.004 173.833,115.003 173.701 C 115.001 173.583,114.719 173.770,114.375 174.118 C 113.559 174.943,112.589 175.804,111.388 176.771 C 110.854 177.201,110.037 177.897,109.573 178.318 C 109.108 178.739,108.145 179.571,107.432 180.167 C 106.719 180.762,105.473 181.813,104.663 182.500 C 103.853 183.188,102.608 184.237,101.896 184.833 C 101.184 185.429,100.484 186.029,100.341 186.167 C 100.198 186.304,99.407 186.979,98.582 187.667 C 97.758 188.354,97.008 188.999,96.917 189.099 C 96.825 189.199,96.075 189.837,95.250 190.516 C 93.813 191.698,93.303 192.192,93.410 192.299 C 93.496 192.385,94.396 192.535,95.000 192.564 C 95.321 192.580,95.671 192.647,95.777 192.714 C 95.884 192.781,96.001 192.747,96.037 192.638 C 96.080 192.510,96.188 192.494,96.343 192.591 C 96.475 192.674,96.846 192.754,97.167 192.769 C 97.697 192.795,98.549 192.898,99.667 193.072 C 100.144 193.146,101.464 193.290,102.917 193.427 C 103.467 193.478,104.142 193.550,104.417 193.587 C 104.692 193.624,105.545 193.696,106.313 193.747 C 107.081 193.798,107.764 193.874,107.830 193.914 C 107.937 193.981,109.476 194.144,110.878 194.237 C 111.174 194.257,112.092 194.360,112.917 194.466 C 113.742 194.572,115.617 194.777,117.083 194.920 C 118.550 195.064,120.275 195.251,120.917 195.337 C 121.558 195.423,122.608 195.535,123.250 195.586 C 123.892 195.637,124.942 195.751,125.583 195.840 C 126.225 195.928,127.575 196.075,128.583 196.167 C 131.299 196.413,134.835 196.799,135.500 196.921 C 139.833 197.720,144.135 200.954,146.025 204.833 C 148.445 209.802,148.994 211.645,149.004 214.828 C 149.010 216.698,148.988 216.978,148.788 217.500 C 148.689 217.759,148.441 218.958,148.425 219.250 C 148.421 219.342,148.373 219.454,148.319 219.500 C 148.265 219.546,148.141 219.819,148.042 220.108 C 147.777 220.883,148.135 220.749,149.437 219.584 C 150.039 219.046,150.806 218.388,151.141 218.123 C 151.476 217.857,152.200 217.241,152.750 216.754 C 153.786 215.836,154.641 215.104,157.333 212.832 C 158.204 212.097,159.704 210.823,160.667 210.001 C 161.629 209.179,162.979 208.045,163.667 207.480 C 164.354 206.915,165.029 206.331,165.167 206.182 C 165.304 206.033,166.092 205.357,166.917 204.680 C 167.742 204.002,168.492 203.364,168.583 203.260 C 168.675 203.157,169.425 202.515,170.250 201.833 C 171.075 201.152,171.825 200.509,171.917 200.406 C 172.008 200.303,172.747 199.663,173.558 198.984 C 175.455 197.396,177.305 195.831,179.745 193.750 C 180.819 192.833,182.279 191.596,182.989 191.000 C 183.698 190.404,184.834 189.438,185.514 188.854 C 187.062 187.523,187.297 187.323,188.833 186.020 C 189.521 185.437,190.496 184.603,191.000 184.167 C 193.760 181.776,194.472 181.170,195.478 180.354 C 196.086 179.862,196.921 179.145,197.333 178.761 C 197.746 178.378,198.458 177.768,198.917 177.407 C 199.375 177.046,200.171 176.376,200.685 175.917 C 201.726 174.988,203.800 173.226,205.491 171.833 C 206.103 171.329,206.911 170.630,207.287 170.279 C 207.662 169.928,208.190 169.478,208.460 169.279 C 208.730 169.080,209.479 168.447,210.123 167.872 C 210.768 167.298,211.596 166.585,211.964 166.289 C 212.929 165.510,215.230 163.552,216.315 162.583 C 216.829 162.124,217.625 161.454,218.083 161.093 C 218.542 160.732,219.254 160.122,219.667 159.739 C 220.079 159.355,220.914 158.638,221.522 158.146 C 222.628 157.249,224.498 155.657,225.750 154.547 C 226.117 154.222,226.977 153.497,227.662 152.936 C 228.346 152.375,229.059 151.764,229.245 151.577 C 229.431 151.390,230.182 150.752,230.913 150.160 C 231.645 149.568,232.358 148.958,232.497 148.806 C 232.636 148.653,233.454 147.941,234.313 147.223 C 236.246 145.608,238.051 144.081,240.585 141.917 C 241.659 141.000,242.885 139.962,243.310 139.609 C 243.735 139.257,244.533 138.574,245.083 138.091 C 245.633 137.609,246.571 136.813,247.167 136.322 C 247.762 135.831,248.325 135.345,248.417 135.241 C 248.508 135.137,249.258 134.499,250.083 133.823 C 250.908 133.147,251.658 132.509,251.750 132.406 C 251.842 132.303,252.580 131.663,253.391 130.984 C 255.289 129.396,257.138 127.831,259.578 125.750 C 260.653 124.833,262.113 123.596,262.823 123.000 C 264.679 121.442,267.569 118.948,267.667 118.820 C 267.712 118.760,268.207 118.344,268.765 117.897 C 269.324 117.449,270.224 116.695,270.765 116.221 C 273.027 114.241,274.134 113.357,274.231 113.453 C 274.287 113.509,274.333 113.435,274.333 113.288 C 274.333 113.140,274.420 112.966,274.526 112.901 C 274.652 112.823,274.677 112.862,274.597 113.016 C 274.530 113.145,274.591 113.108,274.732 112.934 C 274.874 112.760,274.942 112.535,274.885 112.434 C 274.827 112.333,274.838 112.303,274.910 112.367 C 274.981 112.431,275.143 112.381,275.270 112.254 C 275.549 111.975,275.573 111.768,275.308 111.933 C 275.187 112.007,275.160 111.978,275.236 111.856 C 275.302 111.749,275.418 111.699,275.493 111.746 C 275.678 111.860,276.207 111.033,276.080 110.827 C 276.024 110.738,276.096 110.619,276.239 110.564 C 276.383 110.509,276.500 110.355,276.500 110.222 C 276.500 110.089,276.567 110.022,276.649 110.072 C 276.731 110.123,276.956 109.827,277.150 109.415 C 277.343 109.004,277.543 108.667,277.594 108.667 C 277.645 108.667,277.639 108.760,277.581 108.875 C 277.523 108.990,277.588 108.945,277.726 108.775 C 277.864 108.606,277.942 108.376,277.899 108.265 C 277.857 108.153,277.974 107.924,278.161 107.755 C 278.347 107.586,278.500 107.512,278.500 107.589 C 278.500 107.667,278.604 107.588,278.731 107.414 C 278.859 107.240,278.929 107.008,278.887 106.899 C 278.845 106.790,278.902 106.644,279.014 106.574 C 279.157 106.486,279.176 106.519,279.077 106.683 C 278.957 106.881,278.978 106.882,279.216 106.689 C 279.370 106.564,279.460 106.404,279.416 106.332 C 279.371 106.260,279.455 106.156,279.602 106.099 C 279.750 106.042,279.827 105.890,279.775 105.754 C 279.723 105.620,279.765 105.459,279.866 105.396 C 279.988 105.321,280.005 105.363,279.918 105.516 C 279.817 105.693,279.833 105.705,279.987 105.563 C 280.099 105.461,280.208 105.253,280.230 105.101 C 280.253 104.949,280.316 104.845,280.370 104.870 C 280.507 104.934,281.167 104.077,281.167 103.836 C 281.167 103.729,281.387 103.421,281.655 103.152 C 281.924 102.884,282.274 102.368,282.434 102.006 C 282.593 101.645,282.782 101.385,282.854 101.429 C 282.925 101.473,283.065 101.357,283.164 101.171 C 283.264 100.985,283.286 100.832,283.214 100.830 C 283.142 100.828,283.240 100.696,283.432 100.538 C 283.954 100.108,284.667 99.090,284.667 98.776 C 284.667 98.624,284.777 98.500,284.912 98.500 C 285.160 98.500,285.787 97.504,285.546 97.495 C 285.475 97.492,285.546 97.414,285.705 97.322 C 286.036 97.129,287.081 95.667,286.888 95.667 C 286.817 95.667,286.920 95.554,287.116 95.417 C 287.312 95.279,287.643 94.886,287.852 94.542 C 288.061 94.198,288.330 93.857,288.449 93.783 C 288.569 93.710,288.667 93.491,288.667 93.297 C 288.667 93.103,288.713 92.990,288.769 93.047 C 288.825 93.103,289.140 92.759,289.468 92.283 C 289.796 91.806,290.277 91.117,290.538 90.750 C 290.799 90.383,291.191 89.821,291.411 89.500 C 291.630 89.179,292.111 88.504,292.480 88.000 C 292.850 87.496,293.486 86.596,293.894 86.000 C 294.581 84.999,296.881 81.769,298.667 79.298 C 299.079 78.728,299.857 77.621,300.396 76.839 C 300.935 76.057,301.597 75.135,301.868 74.792 C 302.563 73.911,302.381 73.714,301.564 74.461 M145.310 224.792 C 144.831 225.371,144.627 225.667,144.710 225.667 C 144.756 225.667,144.994 225.404,145.239 225.083 C 145.693 224.488,145.748 224.263,145.310 224.792 " stroke="none" fill="#ecd494" fill-rule="evenodd"></path><path id="path1" d="M278.110 107.804 C 277.791 108.156,277.758 108.333,278.010 108.333 C 278.107 108.333,278.143 108.263,278.090 108.177 C 278.036 108.091,278.125 107.947,278.287 107.856 C 278.448 107.766,278.537 107.648,278.484 107.595 C 278.430 107.542,278.262 107.636,278.110 107.804 M277.339 108.989 C 277.128 109.384,277.118 109.550,277.313 109.429 C 277.460 109.338,277.690 108.667,277.574 108.667 C 277.540 108.667,277.434 108.812,277.339 108.989 M274.339 113.208 C 274.256 113.415,274.183 113.524,274.177 113.451 C 274.167 113.324,272.894 114.358,270.765 116.221 C 270.224 116.695,269.324 117.449,268.765 117.897 C 268.207 118.344,267.712 118.760,267.667 118.820 C 267.569 118.948,264.679 121.442,262.823 123.000 C 262.113 123.596,260.653 124.833,259.578 125.750 C 257.138 127.831,255.289 129.396,253.391 130.984 C 252.580 131.663,251.842 132.303,251.750 132.406 C 251.658 132.509,250.908 133.147,250.083 133.823 C 249.258 134.499,248.508 135.137,248.417 135.241 C 248.325 135.345,247.762 135.831,247.167 136.322 C 246.571 136.813,245.633 137.609,245.083 138.091 C 244.533 138.574,243.735 139.257,243.310 139.609 C 242.885 139.962,241.659 141.000,240.585 141.917 C 238.051 144.081,236.246 145.608,234.313 147.223 C 233.454 147.941,232.636 148.653,232.497 148.806 C 232.358 148.958,231.645 149.568,230.913 150.160 C 230.182 150.752,229.431 151.390,229.245 151.577 C 229.059 151.764,228.346 152.375,227.662 152.936 C 226.977 153.497,226.117 154.222,225.750 154.547 C 224.498 155.657,222.628 157.249,221.522 158.146 C 220.914 158.638,220.079 159.355,219.667 159.739 C 219.254 160.122,218.542 160.732,218.083 161.093 C 217.625 161.454,216.829 162.124,216.315 162.583 C 215.230 163.552,212.929 165.510,211.964 166.289 C 211.596 166.585,210.768 167.298,210.123 167.872 C 209.479 168.447,208.730 169.080,208.460 169.279 C 208.190 169.478,207.662 169.928,207.287 170.279 C 206.911 170.630,206.103 171.329,205.491 171.833 C 203.800 173.226,201.726 174.988,200.685 175.917 C 200.171 176.376,199.375 177.046,198.917 177.407 C 198.458 177.768,197.746 178.378,197.333 178.761 C 196.921 179.145,196.086 179.862,195.478 180.354 C 194.472 181.170,193.760 181.776,191.000 184.167 C 190.496 184.603,189.521 185.437,188.833 186.020 C 187.297 187.323,187.062 187.523,185.514 188.854 C 184.834 189.438,183.698 190.404,182.989 191.000 C 182.279 191.596,180.819 192.833,179.745 193.750 C 177.305 195.831,175.455 197.396,173.558 198.984 C 172.747 199.663,172.008 200.303,171.917 200.406 C 171.825 200.509,171.075 201.152,170.250 201.833 C 169.425 202.515,168.675 203.157,168.583 203.260 C 168.492 203.364,167.742 204.002,166.917 204.680 C 166.092 205.357,165.304 206.033,165.167 206.182 C 165.029 206.331,164.354 206.915,163.667 207.480 C 162.979 208.045,161.629 209.179,160.667 210.001 C 159.704 210.823,158.204 212.097,157.333 212.832 C 154.791 214.978,153.814 215.811,152.750 216.744 C 152.200 217.227,151.262 218.030,150.667 218.530 C 150.071 219.030,149.286 219.712,148.923 220.044 C 148.386 220.538,148.218 220.613,148.016 220.450 C 147.839 220.306,147.802 220.304,147.886 220.444 C 147.950 220.551,147.908 220.676,147.793 220.723 C 147.634 220.787,147.644 220.851,147.833 220.985 C 147.971 221.082,148.000 221.163,147.898 221.164 C 147.796 221.166,147.534 221.504,147.315 221.917 C 147.096 222.329,146.861 222.667,146.792 222.667 C 146.723 222.667,146.667 222.779,146.667 222.917 C 146.667 223.054,146.589 223.167,146.495 223.167 C 146.400 223.167,146.277 223.298,146.220 223.458 C 146.164 223.619,145.923 223.968,145.684 224.234 C 145.445 224.500,145.357 224.657,145.487 224.582 C 145.631 224.498,145.599 224.612,145.403 224.872 C 145.227 225.107,145.008 225.257,144.917 225.206 C 144.825 225.155,144.804 225.173,144.870 225.246 C 144.994 225.383,144.628 225.969,144.008 226.625 C 143.813 226.831,143.704 227.000,143.766 227.000 C 143.828 227.000,143.681 227.198,143.439 227.439 C 143.198 227.681,143.000 228.023,143.000 228.199 C 143.000 228.375,142.934 228.479,142.853 228.429 C 142.772 228.379,142.613 228.561,142.500 228.833 C 142.387 229.106,142.228 229.288,142.147 229.238 C 142.066 229.188,142.000 229.264,142.000 229.407 C 142.000 229.550,141.925 229.667,141.833 229.667 C 141.742 229.667,141.667 229.773,141.667 229.903 C 141.667 230.033,141.610 230.164,141.542 230.194 C 141.389 230.262,140.667 231.278,140.667 231.425 C 140.667 231.483,140.320 231.936,139.896 232.432 C 139.473 232.928,139.184 233.333,139.255 233.333 C 139.326 233.333,139.218 233.478,139.015 233.654 C 138.811 233.830,138.651 234.019,138.659 234.074 C 138.667 234.129,138.591 234.265,138.489 234.378 C 138.295 234.594,137.316 236.014,136.107 237.833 C 135.711 238.429,135.263 239.020,135.110 239.145 C 134.958 239.271,134.833 239.471,134.833 239.590 C 134.833 239.708,134.773 239.831,134.699 239.861 C 134.625 239.892,134.323 240.254,134.029 240.667 C 133.734 241.079,133.232 241.754,132.913 242.167 C 132.594 242.579,132.282 243.029,132.220 243.167 C 132.047 243.545,131.433 244.409,131.292 244.472 C 131.223 244.503,131.167 244.592,131.167 244.670 C 131.167 244.749,130.942 245.059,130.667 245.360 C 130.392 245.661,130.167 245.970,130.167 246.047 C 130.167 246.164,129.273 247.401,128.997 247.667 C 128.949 247.713,128.817 247.938,128.703 248.167 C 128.525 248.526,127.997 249.242,127.074 250.375 C 126.944 250.535,126.892 250.668,126.960 250.669 C 127.028 250.671,127.008 250.727,126.915 250.794 C 126.719 250.937,125.228 252.979,124.270 254.417 C 123.903 254.967,123.502 255.519,123.378 255.644 C 123.139 255.885,122.029 257.512,121.752 258.027 C 121.662 258.196,121.530 258.333,121.460 258.333 C 121.391 258.333,121.333 258.404,121.333 258.490 C 121.333 258.576,121.108 258.892,120.833 259.194 C 120.558 259.495,120.333 259.839,120.333 259.959 C 120.333 260.079,120.221 260.220,120.084 260.273 C 119.947 260.325,119.877 260.436,119.928 260.519 C 119.979 260.601,119.904 260.714,119.761 260.769 C 119.617 260.824,119.500 260.962,119.500 261.075 C 119.500 261.189,119.350 261.417,119.167 261.583 C 118.983 261.749,118.833 261.957,118.833 262.045 C 118.833 262.134,118.606 262.478,118.328 262.811 C 117.704 263.557,117.736 263.514,116.846 264.833 C 116.444 265.429,116.065 265.954,116.003 266.000 C 115.942 266.046,115.715 266.402,115.499 266.792 C 115.282 267.181,115.062 267.500,115.009 267.500 C 114.956 267.500,114.727 267.800,114.500 268.167 C 114.273 268.533,114.031 268.833,113.961 268.833 C 113.891 268.833,113.833 268.940,113.833 269.069 C 113.833 269.199,113.770 269.331,113.692 269.361 C 113.614 269.392,113.352 269.717,113.110 270.083 C 112.241 271.402,110.791 273.441,109.302 275.440 C 108.677 276.279,108.167 277.033,108.167 277.117 C 108.167 277.202,108.035 277.416,107.873 277.594 C 107.518 277.985,106.094 279.939,105.329 281.083 C 105.023 281.542,104.725 281.954,104.667 282.000 C 104.609 282.046,104.309 282.458,104.002 282.917 C 103.504 283.658,103.012 284.322,102.491 284.958 C 102.397 285.073,102.366 285.167,102.422 285.167 C 102.478 285.167,102.125 285.690,101.637 286.330 C 100.099 288.348,99.692 288.913,99.683 289.045 C 99.678 289.115,99.122 289.902,98.448 290.795 C 97.773 291.687,97.021 292.717,96.778 293.083 C 96.534 293.450,96.166 293.987,95.959 294.276 C 93.475 297.756,93.425 297.833,93.631 297.833 C 93.770 297.833,95.732 296.070,97.480 294.375 C 97.882 293.985,98.235 293.667,98.266 293.667 C 98.296 293.667,98.654 293.348,99.061 292.958 C 99.801 292.250,102.498 289.748,104.046 288.333 C 104.497 287.921,105.140 287.331,105.475 287.022 C 105.809 286.714,106.635 285.964,107.308 285.356 C 107.982 284.747,108.972 283.819,109.509 283.292 C 110.046 282.765,110.526 282.333,110.576 282.333 C 110.626 282.333,110.952 282.052,111.301 281.708 C 111.650 281.365,112.306 280.753,112.759 280.349 C 113.213 279.946,114.265 278.971,115.099 278.183 C 115.932 277.395,117.207 276.212,117.932 275.555 C 118.657 274.897,119.662 273.974,120.167 273.503 C 120.671 273.032,121.458 272.303,121.917 271.883 C 125.230 268.849,125.965 268.169,126.608 267.542 C 127.008 267.152,127.369 266.833,127.411 266.833 C 127.452 266.833,127.889 266.421,128.381 265.917 C 128.873 265.412,129.320 265.000,129.374 265.000 C 129.428 265.000,129.768 264.719,130.129 264.375 C 130.490 264.031,131.406 263.188,132.164 262.500 C 132.922 261.813,134.010 260.800,134.582 260.250 C 135.154 259.700,136.092 258.837,136.666 258.333 C 137.240 257.829,138.206 256.944,138.813 256.367 C 139.743 255.482,141.272 254.079,142.936 252.583 C 143.897 251.720,146.450 249.364,146.906 248.920 C 147.187 248.647,148.167 247.755,149.083 246.938 C 150.000 246.122,151.012 245.205,151.333 244.902 C 153.052 243.278,153.549 242.819,154.721 241.775 C 155.426 241.147,156.518 240.135,157.147 239.525 C 157.776 238.916,158.611 238.154,159.003 237.833 C 159.395 237.512,159.836 237.131,159.983 236.986 C 160.974 236.008,163.929 234.665,166.206 234.158 C 170.937 233.104,177.119 234.930,180.571 238.400 C 182.542 240.381,182.762 240.688,184.026 243.204 C 184.587 244.320,185.256 247.053,185.405 248.833 C 185.462 249.521,185.581 250.646,185.668 251.333 C 185.756 252.021,185.865 253.033,185.911 253.583 C 186.022 254.907,186.304 257.613,186.589 260.083 C 186.716 261.183,186.863 262.608,186.916 263.250 C 186.968 263.892,187.048 264.607,187.094 264.839 C 187.206 265.408,187.513 268.486,187.506 268.975 C 187.503 269.190,187.550 269.446,187.609 269.542 C 187.669 269.638,187.730 269.950,187.745 270.234 C 187.760 270.518,187.837 270.894,187.915 271.069 C 188.021 271.308,188.003 271.355,187.844 271.256 C 187.592 271.101,187.752 271.760,188.062 272.157 C 188.206 272.341,188.201 272.368,188.042 272.272 C 187.895 272.184,187.834 272.285,187.836 272.615 C 187.838 272.979,187.875 273.027,188.000 272.833 C 188.138 272.621,188.162 272.627,188.164 272.880 C 188.167 273.171,188.775 272.694,193.326 268.833 C 194.136 268.146,195.463 267.023,196.274 266.339 C 197.086 265.654,197.825 265.009,197.917 264.906 C 198.008 264.803,198.758 264.165,199.583 263.490 C 200.408 262.814,201.158 262.176,201.250 262.073 C 201.342 261.970,202.078 261.330,202.887 260.651 C 203.696 259.972,205.084 258.799,205.971 258.043 C 206.858 257.288,208.232 256.136,209.025 255.484 C 210.460 254.304,210.467 254.294,210.406 253.607 C 210.360 253.099,210.383 253.005,210.494 253.250 C 210.622 253.535,210.645 253.507,210.655 253.055 C 210.661 252.765,210.717 252.396,210.778 252.236 C 210.854 252.038,210.828 251.984,210.695 252.066 C 210.478 252.200,210.416 251.640,210.625 251.431 C 210.694 251.362,210.762 251.106,210.777 250.861 C 210.792 250.617,210.888 249.941,210.991 249.359 C 211.095 248.777,211.134 248.159,211.078 247.984 C 211.023 247.810,211.051 247.667,211.141 247.667 C 211.230 247.667,211.285 247.537,211.262 247.378 C 211.238 247.220,211.289 246.789,211.374 246.420 C 211.460 246.052,211.550 245.600,211.574 245.417 C 211.599 245.233,211.731 244.821,211.867 244.500 C 212.003 244.179,212.113 243.879,212.110 243.833 C 212.100 243.665,213.248 241.415,213.372 241.361 C 213.442 241.331,213.500 241.237,213.500 241.154 C 213.500 241.014,214.575 239.521,214.812 239.333 C 214.870 239.287,215.198 238.931,215.542 238.541 C 215.885 238.151,216.167 237.873,216.167 237.923 C 216.167 237.972,216.329 237.862,216.528 237.677 C 216.726 237.492,217.195 237.133,217.569 236.879 C 217.944 236.625,218.287 236.376,218.333 236.326 C 218.415 236.236,219.976 235.478,221.219 234.924 C 221.569 234.768,222.057 234.607,222.303 234.565 C 222.549 234.524,222.861 234.451,222.996 234.402 C 223.132 234.354,223.732 234.275,224.330 234.226 C 224.928 234.178,225.737 234.079,226.128 234.007 C 226.519 233.934,226.880 233.941,226.930 234.021 C 227.069 234.246,227.833 234.193,227.836 233.958 C 227.838 233.819,227.892 233.833,228.000 234.000 C 228.089 234.137,228.164 234.175,228.167 234.083 C 228.169 233.992,228.243 234.029,228.331 234.167 C 228.465 234.378,228.545 234.383,228.846 234.196 C 229.065 234.060,229.157 234.048,229.084 234.166 C 229.016 234.276,229.061 234.340,229.192 234.318 C 229.315 234.297,229.628 234.367,229.886 234.473 C 230.479 234.718,230.548 234.716,230.398 234.458 C 230.331 234.344,230.420 234.371,230.596 234.518 C 230.960 234.823,232.058 235.229,231.922 235.009 C 231.873 234.929,231.982 234.903,232.165 234.951 C 232.347 234.999,232.455 235.104,232.405 235.186 C 232.355 235.267,232.424 235.333,232.560 235.333 C 232.695 235.333,232.831 235.274,232.861 235.200 C 232.892 235.127,233.442 234.630,234.083 234.095 C 234.725 233.560,235.700 232.728,236.250 232.247 C 236.800 231.766,237.700 231.009,238.250 230.566 C 238.800 230.123,239.325 229.677,239.417 229.575 C 239.508 229.473,240.285 228.796,241.142 228.070 C 244.569 225.168,245.504 224.379,246.559 223.500 C 247.539 222.684,247.968 222.000,247.500 222.000 C 247.408 222.000,247.342 221.944,247.353 221.875 C 247.399 221.584,247.319 221.343,247.105 221.129 C 246.980 221.004,246.825 220.717,246.761 220.492 C 246.672 220.180,246.686 220.142,246.820 220.333 C 247.069 220.689,247.041 220.472,246.748 219.770 C 246.609 219.438,246.543 219.167,246.602 219.167 C 246.660 219.167,246.633 219.073,246.543 218.958 C 246.305 218.658,246.400 213.540,246.654 212.917 C 246.766 212.642,246.883 212.226,246.913 211.992 C 246.943 211.759,247.319 210.821,247.748 209.909 C 248.423 208.476,249.172 206.871,249.885 205.333 C 251.579 201.681,255.811 198.193,259.602 197.325 C 261.166 196.968,260.960 196.997,263.667 196.740 C 264.262 196.684,264.975 196.598,265.250 196.549 C 265.525 196.500,266.031 196.472,266.375 196.487 C 266.719 196.501,267.000 196.454,267.000 196.382 C 267.000 196.309,267.281 196.248,267.625 196.245 C 268.848 196.236,271.577 195.979,271.663 195.866 C 271.711 195.802,272.235 195.727,272.828 195.699 C 273.421 195.670,273.995 195.573,274.105 195.482 C 274.222 195.385,274.342 195.379,274.398 195.469 C 274.449 195.553,274.662 195.604,274.871 195.582 C 275.079 195.560,275.512 195.524,275.833 195.502 L 276.417 195.461 275.917 195.333 C 275.539 195.237,275.682 195.207,276.500 195.210 C 278.136 195.217,278.833 195.149,278.833 194.983 C 278.833 194.901,278.913 194.833,279.010 194.833 C 279.107 194.833,279.143 194.904,279.089 194.990 C 279.005 195.126,279.168 195.131,280.069 195.019 C 280.153 195.009,280.173 194.950,280.112 194.890 C 280.052 194.829,280.144 194.698,280.317 194.598 C 280.624 194.422,282.222 193.100,285.529 190.288 C 286.416 189.534,287.804 188.361,288.613 187.682 C 289.422 187.004,290.158 186.364,290.250 186.260 C 290.342 186.157,291.092 185.520,291.917 184.844 C 292.742 184.168,293.492 183.530,293.583 183.427 C 293.675 183.324,294.425 182.683,295.250 182.002 C 296.075 181.321,296.788 180.711,296.834 180.646 C 296.881 180.581,297.450 180.091,298.099 179.556 C 298.748 179.021,299.798 178.133,300.432 177.583 C 301.066 177.033,301.847 176.372,302.167 176.113 L 302.750 175.643 302.208 175.752 C 301.910 175.811,301.667 175.791,301.667 175.708 C 301.667 175.624,301.554 175.556,301.417 175.556 C 301.279 175.556,301.166 175.637,301.164 175.736 C 301.163 175.835,301.089 175.804,301.000 175.667 C 300.911 175.529,300.837 175.471,300.836 175.538 C 300.834 175.604,300.642 175.585,300.407 175.496 C 300.125 175.389,300.016 175.391,300.084 175.501 C 300.140 175.592,300.038 175.667,299.857 175.667 C 299.676 175.667,299.502 175.590,299.471 175.496 C 299.440 175.403,298.909 175.309,298.291 175.288 C 297.673 175.267,297.168 175.205,297.167 175.150 C 297.167 175.096,296.940 175.044,296.664 175.036 C 296.318 175.027,296.198 175.084,296.279 175.219 C 296.368 175.368,296.338 175.370,296.157 175.230 C 295.928 175.051,293.892 174.749,291.750 174.574 C 291.200 174.530,290.225 174.416,289.583 174.322 C 288.942 174.228,287.854 174.113,287.167 174.067 C 286.479 174.021,285.441 173.909,284.859 173.817 C 284.277 173.726,283.227 173.614,282.525 173.569 C 281.824 173.524,280.800 173.419,280.250 173.335 C 279.700 173.251,278.650 173.139,277.917 173.086 C 277.183 173.034,276.058 172.918,275.417 172.829 C 274.775 172.740,273.837 172.640,273.333 172.605 C 272.029 172.517,268.887 172.179,266.803 171.903 C 265.824 171.773,264.699 171.665,264.303 171.663 C 258.388 171.635,252.482 168.141,250.220 163.333 C 248.425 159.517,248.111 158.333,248.123 155.409 C 248.132 152.897,248.866 149.333,249.374 149.333 C 249.443 149.333,249.500 149.200,249.500 149.037 C 249.500 148.747,252.170 144.572,252.775 143.916 C 252.945 143.732,253.526 142.907,254.066 142.083 C 254.607 141.258,255.140 140.508,255.251 140.416 C 255.361 140.324,255.737 139.799,256.086 139.249 C 256.680 138.315,258.002 136.520,258.447 136.043 C 258.556 135.926,258.692 135.682,258.750 135.499 C 258.808 135.316,258.930 135.167,259.021 135.167 C 259.112 135.167,259.140 135.092,259.083 135.000 C 259.027 134.908,259.060 134.833,259.157 134.833 C 259.254 134.833,259.333 134.754,259.333 134.658 C 259.333 134.561,259.558 134.242,259.833 133.949 C 260.107 133.656,260.332 133.321,260.333 133.203 C 260.333 133.086,260.445 132.947,260.582 132.894 C 260.719 132.841,260.793 132.736,260.746 132.659 C 260.698 132.583,260.761 132.460,260.885 132.385 C 261.009 132.311,261.461 131.725,261.889 131.083 C 262.316 130.442,262.873 129.659,263.125 129.343 C 263.377 129.028,263.564 128.707,263.540 128.630 C 263.516 128.554,263.610 128.447,263.748 128.394 C 263.887 128.341,264.000 128.199,264.000 128.079 C 264.000 127.959,264.068 127.836,264.152 127.806 C 264.330 127.741,265.500 126.029,265.500 125.834 C 265.500 125.762,265.617 125.657,265.761 125.602 C 265.904 125.547,265.974 125.426,265.917 125.333 C 265.859 125.240,265.929 125.119,266.073 125.064 C 266.216 125.009,266.333 124.860,266.333 124.732 C 266.333 124.604,266.408 124.500,266.500 124.500 C 266.592 124.500,266.667 124.383,266.667 124.240 C 266.667 124.097,266.742 124.027,266.833 124.083 C 266.925 124.140,267.000 124.027,267.000 123.833 C 267.000 123.639,267.075 123.527,267.167 123.583 C 267.258 123.640,267.333 123.567,267.333 123.421 C 267.333 123.275,267.446 123.113,267.583 123.060 C 267.721 123.008,267.833 122.860,267.833 122.732 C 267.833 122.604,267.899 122.500,267.980 122.500 C 268.060 122.500,268.219 122.275,268.333 122.000 C 268.447 121.725,268.606 121.500,268.687 121.500 C 268.767 121.500,268.833 121.384,268.833 121.242 C 268.833 121.100,269.016 120.815,269.239 120.608 C 269.462 120.401,269.669 120.124,269.697 119.991 C 269.726 119.858,269.914 119.589,270.115 119.392 C 270.315 119.196,270.434 118.990,270.379 118.934 C 270.323 118.879,270.365 118.833,270.472 118.833 C 270.579 118.833,270.667 118.739,270.667 118.623 C 270.667 118.508,270.857 118.208,271.090 117.957 C 271.323 117.705,271.454 117.500,271.382 117.500 C 271.309 117.500,271.456 117.322,271.708 117.105 C 271.960 116.889,272.167 116.623,272.167 116.515 C 272.167 116.407,272.354 116.117,272.583 115.869 C 272.813 115.622,273.000 115.323,273.000 115.205 C 273.000 115.086,273.112 114.946,273.250 114.894 C 273.387 114.841,273.500 114.697,273.500 114.575 C 273.500 114.452,273.667 114.235,273.870 114.093 C 274.124 113.915,274.163 113.830,273.995 113.823 C 273.851 113.817,273.895 113.754,274.102 113.670 C 274.295 113.592,274.495 113.372,274.545 113.181 C 274.666 112.718,274.528 112.737,274.339 113.208 " stroke="none" fill="#ecc681" fill-rule="evenodd"></path><path id="path2" d="M198.356 1.242 C 198.252 1.941,198.168 2.754,198.170 3.048 C 198.173 3.343,198.062 4.521,197.924 5.667 C 197.580 8.528,197.187 12.080,197.104 13.083 C 197.035 13.909,196.815 15.933,196.495 18.667 C 196.404 19.446,196.293 20.533,196.249 21.083 C 196.142 22.415,195.969 24.084,195.087 32.292 C 194.951 33.552,194.723 35.708,194.580 37.083 C 194.437 38.458,194.241 40.221,194.145 41.000 C 194.050 41.779,193.939 42.867,193.900 43.417 C 193.860 43.967,193.723 45.317,193.595 46.417 C 193.468 47.517,193.279 49.317,193.176 50.417 C 193.073 51.517,192.879 53.279,192.744 54.333 C 192.610 55.387,192.500 56.544,192.500 56.903 C 192.500 57.262,192.392 58.387,192.259 59.403 C 192.127 60.419,191.898 62.450,191.750 63.917 C 191.602 65.383,191.371 67.446,191.238 68.500 C 191.105 69.554,190.997 70.725,190.998 71.102 C 190.999 71.479,190.929 72.162,190.842 72.620 C 190.756 73.077,190.644 74.006,190.595 74.684 C 190.469 76.405,190.189 79.084,189.906 81.264 C 189.774 82.280,189.668 83.367,189.670 83.680 C 189.673 83.994,189.562 85.188,189.424 86.333 C 189.287 87.479,189.062 89.467,188.925 90.750 C 188.788 92.033,188.563 94.133,188.425 95.417 C 188.288 96.700,188.129 98.237,188.074 98.833 C 188.018 99.429,187.941 100.142,187.901 100.417 C 187.862 100.692,187.792 101.404,187.746 102.000 C 187.700 102.596,187.594 103.608,187.510 104.250 C 187.426 104.892,187.351 105.717,187.343 106.083 C 187.335 106.450,187.230 107.404,187.109 108.203 C 186.951 109.247,186.940 109.711,187.070 109.852 C 187.200 109.994,187.198 110.020,187.061 109.943 C 186.938 109.874,186.876 110.023,186.881 110.377 C 186.885 110.674,186.831 111.320,186.759 111.813 L 186.630 112.708 187.190 112.201 C 187.498 111.921,188.063 111.443,188.445 111.138 C 189.173 110.556,191.172 108.841,192.167 107.943 C 192.487 107.654,193.348 106.929,194.078 106.333 C 194.809 105.737,195.559 105.099,195.745 104.914 C 195.931 104.729,196.748 104.016,197.560 103.330 C 198.373 102.645,199.659 101.558,200.419 100.917 C 201.179 100.275,202.680 99.000,203.755 98.083 C 206.357 95.864,208.188 94.343,208.497 94.144 C 208.643 94.049,208.678 93.949,208.578 93.905 C 208.482 93.863,208.429 93.446,208.457 92.957 C 208.485 92.476,208.391 91.290,208.248 90.320 C 208.105 89.350,207.962 88.188,207.930 87.737 C 207.897 87.286,207.853 86.879,207.832 86.833 C 207.811 86.787,207.808 86.677,207.826 86.589 C 207.843 86.500,207.780 85.825,207.685 85.089 C 207.590 84.352,207.471 83.300,207.419 82.750 C 207.368 82.200,207.300 81.563,207.268 81.333 C 207.235 81.104,207.123 79.924,207.017 78.712 C 206.912 77.499,206.792 76.412,206.751 76.295 C 206.710 76.179,206.641 75.483,206.597 74.750 C 206.554 74.017,206.444 72.892,206.352 72.250 C 206.261 71.608,206.150 70.596,206.105 70.000 C 206.061 69.404,205.948 68.279,205.853 67.500 C 205.758 66.721,205.565 64.977,205.424 63.625 C 205.282 62.273,205.051 60.060,204.910 58.708 C 204.768 57.356,204.573 55.612,204.475 54.833 C 204.378 54.054,204.234 52.667,204.155 51.750 C 203.930 49.125,203.692 46.705,203.510 45.167 C 203.417 44.387,203.226 42.662,203.084 41.333 C 202.942 40.004,202.713 37.979,202.576 36.833 C 202.438 35.688,202.328 34.487,202.331 34.167 C 202.333 33.846,202.229 32.758,202.098 31.750 C 201.890 30.153,201.582 27.319,201.244 23.917 C 201.190 23.367,201.037 21.904,200.905 20.667 C 200.772 19.429,200.594 17.629,200.509 16.667 C 200.423 15.704,200.278 14.392,200.186 13.750 C 200.094 13.108,199.979 12.096,199.930 11.500 C 199.882 10.904,199.761 9.704,199.663 8.833 C 199.565 7.962,199.379 6.313,199.250 5.167 C 199.121 4.021,198.967 2.477,198.909 1.736 C 198.764 -0.120,198.582 -0.282,198.356 1.242 M381.344 66.210 C 381.237 67.149,381.073 68.466,380.978 69.138 C 380.883 69.809,380.739 71.009,380.658 71.805 C 380.136 76.927,379.671 80.179,379.425 80.426 C 378.868 80.987,379.054 81.084,374.327 77.782 C 371.666 75.924,371.739 76.272,374.518 78.702 C 375.012 79.134,375.904 79.939,376.500 80.491 C 377.096 81.044,377.640 81.496,377.708 81.498 C 377.903 81.501,377.855 81.908,377.625 82.205 C 377.406 82.489,375.800 82.706,369.917 83.247 C 362.566 83.924,361.884 84.030,363.590 84.235 C 364.045 84.289,365.223 84.446,366.208 84.584 C 367.194 84.721,368.844 84.950,369.875 85.094 C 370.906 85.237,372.462 85.459,373.333 85.588 C 374.204 85.717,375.390 85.870,375.968 85.928 C 376.735 86.006,377.110 86.132,377.354 86.393 C 377.836 86.908,378.252 87.842,378.058 87.974 C 377.970 88.034,377.789 88.240,377.657 88.432 C 377.428 88.764,376.274 90.177,375.913 90.566 C 375.820 90.667,375.445 91.125,375.080 91.583 C 374.715 92.042,374.335 92.492,374.234 92.583 C 373.867 92.919,373.316 93.833,373.481 93.833 C 373.574 93.833,374.160 93.346,374.784 92.750 C 379.252 88.479,379.649 88.171,379.677 88.958 C 379.698 89.542,379.797 90.617,379.970 92.167 C 380.068 93.037,380.270 94.950,380.420 96.417 C 380.569 97.883,380.799 99.950,380.929 101.009 C 381.060 102.069,381.167 103.281,381.167 103.704 C 381.167 105.094,381.583 105.543,381.635 104.208 C 381.665 103.448,381.764 102.346,382.178 98.167 C 382.283 97.112,382.428 95.425,382.502 94.417 C 382.726 91.329,383.064 88.667,383.231 88.667 C 383.319 88.667,383.515 88.554,383.668 88.415 C 383.919 88.189,384.019 88.217,384.681 88.703 C 385.744 89.483,386.604 90.088,387.833 90.922 C 388.429 91.326,389.240 91.891,389.636 92.178 C 390.534 92.830,390.682 92.735,389.939 91.985 C 389.126 91.164,387.516 89.667,387.447 89.667 C 387.414 89.667,386.803 89.113,386.088 88.437 C 384.794 87.212,384.789 87.204,385.009 86.706 C 385.254 86.153,384.895 86.231,390.250 85.570 C 398.347 84.570,400.014 84.324,399.905 84.147 C 399.855 84.066,399.499 84.002,399.115 84.004 C 398.731 84.006,397.479 83.896,396.333 83.759 C 395.188 83.622,393.238 83.399,392.000 83.264 C 385.370 82.540,385.083 82.490,384.803 82.000 C 384.519 81.507,384.415 81.698,385.925 79.941 C 386.149 79.680,386.333 79.437,386.333 79.401 C 386.333 79.342,386.819 78.745,387.253 78.269 C 387.347 78.167,387.722 77.713,388.087 77.260 C 388.452 76.807,388.919 76.252,389.125 76.027 C 389.504 75.613,389.605 75.333,389.374 75.333 C 389.259 75.333,387.674 76.808,384.794 79.595 C 383.148 81.188,383.124 81.159,382.774 77.134 C 382.319 71.898,382.007 68.024,381.901 66.292 C 381.770 64.146,381.581 64.118,381.344 66.210 M92.667 79.969 C 92.667 80.043,92.835 80.282,93.042 80.500 C 93.248 80.719,93.588 81.126,93.798 81.407 C 94.007 81.687,94.400 82.179,94.672 82.500 C 95.077 82.979,96.103 84.254,97.220 85.667 C 98.107 86.789,98.810 87.646,99.133 87.999 C 99.343 88.229,99.668 88.660,99.855 88.958 C 100.041 89.256,100.263 89.500,100.347 89.500 C 100.431 89.500,100.500 89.606,100.500 89.736 C 100.500 89.866,100.566 89.997,100.647 90.028 C 100.728 90.058,101.219 90.608,101.738 91.250 C 103.458 93.375,103.743 93.724,104.667 94.837 C 105.171 95.444,105.733 96.148,105.917 96.402 C 106.100 96.656,106.457 97.100,106.711 97.390 C 106.965 97.680,107.486 98.329,107.869 98.833 C 108.252 99.337,108.647 99.825,108.747 99.917 C 108.847 100.008,109.297 100.571,109.748 101.167 C 110.199 101.763,110.611 102.287,110.664 102.333 C 110.717 102.379,111.246 103.017,111.839 103.750 C 112.432 104.483,112.955 105.121,113.003 105.167 C 113.050 105.212,113.275 105.482,113.503 105.766 C 114.117 106.533,114.845 107.431,116.026 108.883 C 116.608 109.597,117.308 110.467,117.583 110.816 C 117.858 111.165,118.721 112.240,119.500 113.205 C 120.279 114.171,121.142 115.250,121.417 115.604 C 121.692 115.958,122.068 116.403,122.253 116.593 C 122.438 116.783,122.847 117.271,123.161 117.677 C 123.931 118.675,126.209 121.537,126.417 121.769 C 126.508 121.871,126.846 122.278,127.167 122.675 C 127.487 123.071,127.980 123.662,128.261 123.989 C 128.542 124.316,129.140 125.071,129.591 125.667 C 130.041 126.263,130.562 126.915,130.747 127.117 C 131.117 127.521,131.167 127.582,132.005 128.665 C 132.323 129.077,132.662 129.489,132.759 129.582 C 132.855 129.674,133.229 130.125,133.589 130.583 C 133.949 131.042,134.302 131.442,134.372 131.472 C 134.442 131.503,134.500 131.600,134.500 131.688 C 134.500 131.776,134.755 132.126,135.067 132.466 C 135.378 132.805,136.134 133.721,136.746 134.500 C 137.357 135.279,137.979 136.010,138.127 136.125 C 138.276 136.240,138.331 136.333,138.250 136.333 C 138.169 136.333,138.220 136.427,138.363 136.542 C 138.505 136.656,139.172 137.455,139.843 138.316 C 140.515 139.178,141.219 140.044,141.407 140.241 C 141.596 140.439,141.920 140.821,142.128 141.092 C 142.846 142.025,143.252 142.531,143.839 143.222 C 144.163 143.604,144.624 144.179,144.862 144.500 C 145.100 144.821,145.461 145.271,145.662 145.500 C 145.864 145.729,146.215 146.309,146.442 146.788 C 146.669 147.268,146.931 147.707,147.024 147.765 C 147.118 147.823,147.067 147.623,146.911 147.322 C 146.586 146.694,146.296 147.046,149.107 144.670 C 149.919 143.984,150.736 143.271,150.922 143.086 C 151.108 142.901,151.858 142.266,152.588 141.673 C 153.319 141.081,154.069 140.444,154.255 140.257 C 154.441 140.070,155.191 139.430,155.922 138.836 C 156.652 138.241,157.274 137.700,157.304 137.633 C 157.333 137.566,157.844 137.129,158.439 136.662 C 160.527 135.021,161.340 134.207,160.984 134.114 C 160.780 134.061,160.701 134.100,160.762 134.224 C 160.815 134.330,160.750 134.285,160.619 134.125 C 160.487 133.965,160.257 133.833,160.107 133.833 C 159.956 133.833,159.833 133.766,159.833 133.683 C 159.833 133.600,159.623 133.459,159.365 133.369 C 159.107 133.280,158.788 133.103,158.654 132.978 C 158.521 132.853,158.038 132.490,157.581 132.172 C 156.632 131.511,156.459 131.378,155.948 130.917 C 155.746 130.733,154.793 129.952,153.831 129.181 C 152.870 128.410,152.000 127.679,151.898 127.556 C 151.797 127.434,151.672 127.333,151.621 127.333 C 151.570 127.333,151.353 127.188,151.139 127.011 C 149.371 125.546,147.497 124.015,147.083 123.697 C 146.268 123.071,145.296 122.271,144.971 121.958 C 144.803 121.798,144.598 121.667,144.514 121.667 C 144.430 121.667,144.336 121.609,144.306 121.537 C 144.275 121.466,143.237 120.592,142.000 119.594 C 140.762 118.596,139.725 117.717,139.694 117.640 C 139.664 117.563,139.533 117.500,139.403 117.500 C 139.273 117.500,139.167 117.438,139.167 117.362 C 139.167 117.285,138.848 116.990,138.458 116.705 C 138.069 116.420,137.548 116.009,137.301 115.790 C 137.054 115.572,136.285 114.950,135.593 114.407 C 134.900 113.865,134.333 113.364,134.333 113.294 C 134.333 113.224,134.227 113.167,134.097 113.167 C 133.967 113.167,133.836 113.109,133.806 113.039 C 133.775 112.968,133.375 112.612,132.917 112.247 C 132.458 111.882,132.046 111.539,132.000 111.485 C 131.954 111.430,131.579 111.129,131.167 110.814 C 130.298 110.152,129.726 109.686,129.350 109.333 C 129.203 109.196,128.596 108.712,128.000 108.258 C 127.404 107.804,126.879 107.382,126.833 107.320 C 126.787 107.258,126.375 106.922,125.917 106.573 C 125.458 106.225,125.003 105.859,124.904 105.761 C 124.806 105.663,124.437 105.358,124.084 105.083 C 123.055 104.281,122.254 103.593,122.194 103.458 C 122.164 103.390,122.039 103.333,121.917 103.333 C 121.794 103.333,121.669 103.277,121.639 103.208 C 121.608 103.140,121.208 102.790,120.750 102.431 C 120.292 102.072,119.842 101.697,119.750 101.597 C 119.658 101.498,119.021 100.969,118.333 100.423 C 117.646 99.876,116.978 99.326,116.850 99.201 C 116.721 99.075,116.196 98.669,115.683 98.297 C 115.170 97.926,114.675 97.538,114.583 97.436 C 114.492 97.334,114.042 96.952,113.583 96.587 C 113.125 96.222,112.668 95.847,112.568 95.753 C 112.468 95.660,112.137 95.396,111.833 95.167 C 111.529 94.938,111.199 94.675,111.099 94.583 C 110.999 94.492,110.279 93.907,109.500 93.285 C 108.721 92.662,107.817 91.933,107.491 91.664 C 107.165 91.395,106.415 90.789,105.824 90.316 C 105.233 89.844,104.725 89.392,104.694 89.312 C 104.664 89.232,104.536 89.167,104.411 89.167 C 104.286 89.167,104.123 89.071,104.050 88.954 C 103.977 88.837,103.592 88.488,103.194 88.179 C 102.797 87.869,102.309 87.481,102.111 87.315 C 101.912 87.150,101.000 86.407,100.083 85.665 C 99.167 84.923,98.203 84.132,97.941 83.908 C 97.680 83.684,97.442 83.500,97.414 83.500 C 97.385 83.500,97.187 83.353,96.972 83.174 C 95.572 82.000,95.003 81.534,94.523 81.167 C 94.224 80.938,93.740 80.545,93.448 80.294 C 92.904 79.828,92.667 79.729,92.667 79.969 M346.309 102.750 C 346.186 102.941,345.960 104.454,345.576 107.667 C 345.427 108.904,345.200 110.565,345.070 111.357 C 344.940 112.150,344.833 112.989,344.833 113.223 C 344.833 113.510,344.684 113.736,344.372 113.920 C 344.119 114.070,343.748 114.442,343.548 114.747 C 343.187 115.298,343.176 115.301,341.551 115.401 C 340.652 115.456,338.867 115.614,337.583 115.752 C 336.300 115.889,334.837 116.002,334.333 116.003 C 333.250 116.004,332.167 116.164,332.167 116.323 C 332.167 116.439,334.771 116.861,335.860 116.922 C 336.522 116.958,338.165 117.178,341.162 117.629 C 342.837 117.882,343.097 117.965,343.264 118.298 C 343.468 118.708,344.472 119.667,344.697 119.667 C 344.772 119.667,344.833 119.910,344.833 120.208 C 344.832 120.506,344.942 121.612,345.077 122.667 C 345.212 123.721,345.409 125.258,345.515 126.083 C 345.622 126.908,345.770 128.296,345.846 129.167 C 345.922 130.037,345.990 130.787,345.997 130.833 C 346.068 131.280,346.334 130.055,346.487 128.583 C 346.832 125.257,347.158 121.933,347.243 120.885 C 347.322 119.902,347.366 119.816,348.163 119.071 C 348.623 118.640,349.000 118.185,349.000 118.061 C 349.000 117.918,349.190 117.833,349.508 117.833 C 349.787 117.833,350.743 117.725,351.633 117.592 C 353.214 117.357,356.338 116.995,357.500 116.914 C 360.643 116.692,360.914 116.440,358.286 116.183 C 357.166 116.073,355.275 115.877,354.083 115.747 C 352.892 115.618,351.307 115.465,350.563 115.407 L 349.209 115.302 348.253 114.398 L 347.297 113.494 347.164 111.455 C 347.091 110.334,346.947 108.517,346.844 107.417 C 346.742 106.317,346.604 104.779,346.537 104.000 C 346.471 103.221,346.368 102.658,346.309 102.750 M186.365 114.774 C 186.352 115.107,186.370 115.351,186.405 115.315 C 186.537 115.179,186.632 114.167,186.512 114.167 C 186.444 114.167,186.377 114.440,186.365 114.774 M186.205 117.000 C 186.205 117.321,186.240 117.452,186.282 117.292 C 186.323 117.131,186.323 116.869,186.282 116.708 C 186.240 116.548,186.205 116.679,186.205 117.000 M147.169 148.208 C 147.174 148.623,147.444 148.887,147.558 148.589 C 147.628 148.408,147.598 148.356,147.470 148.435 C 147.341 148.515,147.312 148.463,147.383 148.277 C 147.442 148.125,147.417 148.000,147.328 148.000 C 147.239 148.000,147.168 148.094,147.169 148.208 M148.545 154.167 C 148.545 154.579,148.578 154.748,148.618 154.542 C 148.657 154.335,148.657 153.998,148.618 153.792 C 148.578 153.585,148.545 153.754,148.545 154.167 M120.208 173.115 C 120.369 173.157,120.631 173.157,120.792 173.115 C 120.952 173.073,120.821 173.039,120.500 173.039 C 120.179 173.039,120.048 173.073,120.208 173.115 M116.938 173.465 C 116.893 173.538,117.114 173.567,117.428 173.530 C 117.743 173.494,118.000 173.434,118.000 173.398 C 118.000 173.273,117.019 173.335,116.938 173.465 M114.205 173.621 C 113.906 173.658,113.692 173.740,113.731 173.802 C 113.770 173.865,113.452 173.927,113.026 173.939 C 111.911 173.971,110.026 174.119,109.250 174.235 C 108.883 174.290,107.758 174.406,106.750 174.493 C 104.975 174.645,103.284 174.825,100.333 175.174 C 99.554 175.266,98.467 175.378,97.917 175.422 C 96.818 175.511,96.212 175.574,94.833 175.739 C 94.329 175.799,93.579 175.875,93.167 175.908 C 92.754 175.940,91.629 176.052,90.667 176.157 C 86.524 176.606,84.432 176.831,82.083 177.078 C 80.708 177.222,78.571 177.449,77.333 177.582 C 72.861 178.063,71.736 178.180,70.917 178.247 C 69.946 178.327,67.451 178.588,64.500 178.918 C 63.354 179.046,61.292 179.269,59.917 179.413 C 58.542 179.556,56.385 179.785,55.125 179.920 C 47.031 180.790,45.272 180.973,44.000 181.072 C 43.496 181.111,42.446 181.220,41.667 181.315 C 40.090 181.506,35.828 181.960,34.667 182.062 C 33.042 182.204,29.995 182.540,28.303 182.764 C 27.324 182.894,26.274 182.999,25.970 182.997 C 25.666 182.995,24.517 183.105,23.417 183.240 C 21.630 183.459,20.182 183.613,16.917 183.932 C 15.182 184.101,15.383 184.186,18.417 184.568 C 19.608 184.718,20.832 184.839,21.136 184.837 C 21.441 184.835,22.491 184.940,23.470 185.070 C 25.074 185.283,28.159 185.618,29.917 185.769 C 31.578 185.912,35.440 186.322,40.083 186.849 C 41.000 186.953,42.162 187.068,42.667 187.105 C 43.171 187.142,44.483 187.280,45.583 187.412 C 46.683 187.543,48.783 187.771,50.250 187.917 C 51.717 188.063,53.592 188.266,54.417 188.366 C 55.242 188.467,56.271 188.567,56.704 188.589 C 57.137 188.610,58.262 188.715,59.204 188.821 C 62.217 189.160,65.183 189.482,67.708 189.744 C 72.663 190.260,75.128 190.521,77.083 190.739 C 78.183 190.862,79.344 190.973,79.663 190.987 C 79.982 191.000,80.957 191.118,81.830 191.248 C 82.703 191.379,83.558 191.464,83.731 191.438 C 83.904 191.412,84.429 191.452,84.898 191.528 C 85.367 191.603,86.313 191.707,87.000 191.760 C 88.856 191.900,89.487 191.970,90.500 192.144 C 91.783 192.365,93.330 192.288,93.562 191.991 C 93.665 191.858,94.425 191.195,95.250 190.516 C 96.075 189.837,96.825 189.199,96.917 189.099 C 97.008 188.999,97.758 188.354,98.582 187.667 C 99.407 186.979,100.198 186.304,100.341 186.167 C 100.484 186.029,101.184 185.429,101.896 184.833 C 102.608 184.237,103.853 183.188,104.663 182.500 C 105.473 181.813,106.719 180.762,107.432 180.167 C 108.145 179.571,109.108 178.739,109.573 178.318 C 110.037 177.897,110.854 177.201,111.388 176.771 C 111.922 176.341,112.635 175.735,112.971 175.425 C 113.308 175.114,113.790 174.699,114.043 174.501 C 114.394 174.225,115.042 173.389,114.798 173.527 C 114.771 173.541,114.505 173.584,114.205 173.621 M33.119 249.000 C 32.962 249.599,32.161 255.403,32.089 256.460 C 32.046 257.091,31.839 258.721,31.417 261.750 C 31.289 262.667,31.064 264.429,30.916 265.667 C 30.768 266.904,30.541 268.704,30.412 269.667 C 30.283 270.629,30.090 272.106,29.983 272.949 L 29.788 274.481 28.803 275.088 C 27.604 275.829,27.246 276.169,26.512 277.271 L 25.942 278.126 24.263 278.318 C 23.339 278.423,22.021 278.547,21.333 278.592 C 20.646 278.637,18.883 278.782,17.417 278.915 C 15.950 279.048,13.362 279.275,11.667 279.418 C 9.971 279.562,7.721 279.753,6.667 279.843 C 5.612 279.932,4.337 280.037,3.833 280.075 C 3.329 280.114,2.260 280.197,1.458 280.259 C -0.392 280.403,-0.392 280.580,1.458 280.825 C 2.260 280.931,3.704 281.122,4.667 281.249 C 5.629 281.377,7.354 281.600,8.500 281.746 C 9.646 281.892,11.146 282.086,11.833 282.176 C 13.225 282.359,13.532 282.396,15.917 282.664 C 17.687 282.863,19.924 283.155,22.917 283.578 C 23.925 283.720,24.954 283.836,25.203 283.835 C 25.591 283.834,25.721 283.969,26.095 284.760 C 26.612 285.852,27.981 287.313,28.951 287.808 C 29.721 288.201,29.707 288.162,29.997 290.750 C 30.201 292.566,30.551 295.616,30.916 298.750 C 31.044 299.850,31.268 301.837,31.415 303.167 C 31.561 304.496,31.755 306.183,31.846 306.917 C 31.938 307.650,32.038 308.587,32.068 309.000 C 32.099 309.412,32.213 310.500,32.323 311.417 C 32.432 312.333,32.559 313.402,32.604 313.792 C 32.701 314.621,33.001 314.748,32.998 313.958 C 32.996 313.660,33.111 312.367,33.252 311.083 C 33.758 306.500,33.969 304.408,33.986 303.833 C 33.996 303.512,34.079 302.688,34.171 302.000 C 34.263 301.313,34.372 300.337,34.414 299.833 C 34.659 296.891,34.889 294.516,35.097 292.776 C 35.227 291.691,35.342 290.416,35.353 289.943 C 35.385 288.565,35.535 288.091,35.959 288.030 C 36.165 288.001,36.333 287.907,36.333 287.822 C 36.333 287.736,36.427 287.665,36.542 287.663 C 37.011 287.654,38.660 285.831,39.250 284.667 C 39.631 283.916,39.763 283.839,40.664 283.836 C 41.075 283.834,42.238 283.723,43.247 283.589 C 44.257 283.454,46.096 283.230,47.333 283.090 C 48.571 282.950,50.258 282.757,51.083 282.660 C 51.908 282.563,52.958 282.451,53.417 282.411 C 53.875 282.371,54.850 282.265,55.583 282.176 C 56.317 282.087,58.004 281.895,59.333 281.749 C 66.034 281.014,67.003 280.763,63.833 280.583 C 62.871 280.528,61.971 280.451,61.833 280.411 C 61.598 280.344,57.565 279.940,55.167 279.744 C 54.571 279.695,53.071 279.548,51.833 279.417 C 48.741 279.091,46.062 278.818,45.167 278.739 C 41.223 278.390,39.184 278.089,39.100 277.845 C 38.849 277.118,37.077 275.320,36.200 274.904 C 35.545 274.593,35.333 274.113,35.334 272.947 C 35.335 272.472,35.226 270.996,35.093 269.667 C 34.846 267.211,34.549 263.697,34.409 261.583 C 34.367 260.942,34.261 259.704,34.173 258.833 C 34.085 257.962,33.973 256.688,33.923 256.000 C 33.562 250.935,33.272 248.415,33.119 249.000 " stroke="none" fill="#ecdc9a" fill-rule="evenodd"></path><path id="path3" d="M353.833 181.155 C 353.833 181.230,354.024 181.292,354.257 181.292 C 354.744 181.292,354.710 181.188,354.189 181.088 C 353.993 181.050,353.833 181.080,353.833 181.155 M354.410 182.302 C 353.765 182.824,353.052 183.426,352.827 183.642 C 352.601 183.857,351.854 184.491,351.167 185.050 C 350.479 185.609,349.729 186.250,349.500 186.474 C 349.271 186.699,348.783 187.103,348.417 187.373 L 347.750 187.863 348.583 187.738 C 349.042 187.670,349.830 187.604,350.334 187.592 C 350.839 187.580,351.342 187.514,351.453 187.446 C 351.564 187.377,352.201 187.287,352.869 187.244 C 354.331 187.152,355.765 187.027,356.333 186.944 C 357.644 186.751,358.560 186.653,359.750 186.579 C 360.483 186.534,361.233 186.467,361.417 186.431 C 361.936 186.329,363.291 186.187,364.735 186.082 C 365.461 186.029,366.098 185.960,366.152 185.927 C 366.206 185.894,366.887 185.813,367.667 185.748 C 368.446 185.682,369.233 185.612,369.417 185.592 C 371.349 185.379,372.061 185.310,372.917 185.249 C 373.467 185.210,374.089 185.142,374.301 185.097 C 374.512 185.052,375.599 184.934,376.717 184.833 C 377.835 184.733,379.200 184.580,379.750 184.493 C 380.300 184.407,381.031 184.335,381.375 184.335 C 381.719 184.334,382.000 184.267,382.000 184.186 C 382.000 184.026,381.386 183.943,378.083 183.661 C 376.892 183.560,375.429 183.401,374.833 183.309 C 374.238 183.216,372.887 183.072,371.833 182.987 C 370.779 182.903,369.654 182.792,369.333 182.741 C 369.012 182.690,368.337 182.621,367.833 182.588 C 366.530 182.503,364.822 182.325,364.333 182.223 C 364.104 182.176,363.467 182.113,362.917 182.084 C 362.367 182.055,361.429 181.975,360.833 181.905 C 360.238 181.835,359.581 181.772,359.375 181.764 C 359.169 181.756,359.000 181.690,359.000 181.617 C 359.000 181.543,358.873 181.555,358.717 181.642 C 358.548 181.736,358.279 181.741,358.048 181.653 C 357.836 181.572,357.194 181.472,356.623 181.430 L 355.583 181.355 354.410 182.302 M345.728 188.036 C 345.683 188.108,345.839 188.167,346.073 188.167 C 346.308 188.167,346.500 188.108,346.500 188.036 C 346.500 187.964,346.344 187.905,346.154 187.905 C 345.964 187.905,345.772 187.964,345.728 188.036 M341.167 188.500 L 340.583 188.623 341.115 188.645 C 341.408 188.657,341.693 188.592,341.750 188.500 C 341.807 188.408,341.830 188.343,341.802 188.355 C 341.773 188.367,341.488 188.432,341.167 188.500 M271.250 253.107 C 270.975 253.343,270.330 253.900,269.816 254.345 C 268.339 255.624,267.211 256.582,265.375 258.117 C 263.866 259.378,263.191 260.218,263.908 259.943 C 264.070 259.881,264.119 259.930,264.057 260.092 C 264.001 260.238,264.065 260.333,264.221 260.333 C 264.362 260.333,264.638 260.559,264.835 260.835 C 265.031 261.111,265.261 261.294,265.346 261.242 C 265.431 261.190,265.500 261.226,265.500 261.323 C 265.500 261.421,265.585 261.500,265.689 261.500 C 265.793 261.500,266.012 261.655,266.176 261.844 C 266.340 262.034,266.537 262.202,266.612 262.219 C 266.688 262.236,266.731 262.306,266.708 262.375 C 266.685 262.444,266.738 262.500,266.826 262.500 C 266.913 262.500,267.161 262.669,267.376 262.875 C 267.960 263.436,269.637 264.860,270.219 265.288 C 270.500 265.496,270.789 265.759,270.862 265.874 C 270.935 265.989,270.996 266.027,270.997 265.958 C 270.999 265.890,271.140 265.965,271.310 266.125 C 271.481 266.285,271.898 266.642,272.237 266.917 C 272.577 267.192,272.957 267.510,273.082 267.625 C 273.207 267.740,273.388 267.833,273.484 267.833 C 273.580 267.833,273.782 268.021,273.932 268.250 C 274.082 268.479,274.282 268.667,274.376 268.667 C 274.469 268.667,274.864 268.948,275.253 269.292 C 275.641 269.635,276.423 270.292,276.991 270.750 C 277.558 271.208,278.111 271.660,278.220 271.753 C 278.328 271.846,279.017 272.409,279.750 273.003 C 280.483 273.597,281.108 274.140,281.139 274.208 C 281.169 274.277,281.301 274.333,281.431 274.333 C 281.560 274.333,281.667 274.396,281.667 274.472 C 281.667 274.548,281.985 274.840,282.375 275.120 C 282.765 275.400,283.362 275.882,283.702 276.190 C 284.042 276.498,284.709 277.050,285.184 277.417 C 285.660 277.783,286.146 278.178,286.265 278.294 C 286.384 278.411,286.814 278.759,287.220 279.069 C 287.946 279.623,288.697 280.244,289.064 280.594 C 289.166 280.692,289.375 280.842,289.527 280.927 C 289.679 281.013,290.092 281.346,290.444 281.667 C 290.795 281.987,291.525 282.579,292.064 282.980 C 292.603 283.382,293.168 283.835,293.319 283.986 C 293.628 284.295,296.428 286.562,297.771 287.590 C 298.255 287.961,298.861 288.448,299.118 288.674 C 299.375 288.899,300.060 289.458,300.640 289.917 C 301.220 290.375,301.970 290.992,302.306 291.288 C 303.320 292.181,303.417 291.902,302.499 290.733 C 301.370 289.296,301.134 289.005,300.833 288.678 C 300.696 288.528,300.386 288.146,300.144 287.828 C 299.902 287.510,299.547 287.063,299.355 286.833 C 299.163 286.604,298.946 286.342,298.872 286.250 C 298.798 286.158,298.103 285.296,297.327 284.334 C 296.551 283.371,295.804 282.443,295.667 282.270 C 295.529 282.098,295.267 281.787,295.083 281.580 C 294.900 281.372,294.525 280.919,294.250 280.572 C 293.975 280.225,293.656 279.847,293.542 279.732 C 293.427 279.618,293.333 279.450,293.333 279.359 C 293.333 279.269,293.277 279.169,293.208 279.139 C 293.071 279.078,292.363 278.253,291.583 277.245 C 291.142 276.675,290.677 276.107,289.493 274.694 C 289.313 274.480,289.167 274.274,289.167 274.236 C 289.167 274.198,289.035 274.026,288.875 273.855 C 288.044 272.967,287.667 272.519,287.667 272.420 C 287.667 272.359,287.573 272.212,287.458 272.094 C 287.344 271.975,286.875 271.418,286.417 270.857 C 285.958 270.295,285.527 269.835,285.458 269.835 C 285.390 269.834,285.333 269.725,285.333 269.592 C 285.333 269.459,285.233 269.290,285.109 269.217 C 284.986 269.143,284.643 268.746,284.347 268.333 C 284.051 267.921,283.702 267.523,283.571 267.450 C 283.440 267.377,283.333 267.214,283.333 267.089 C 283.333 266.964,283.274 266.836,283.202 266.806 C 283.130 266.775,282.811 266.415,282.494 266.005 C 282.176 265.595,281.706 265.032,281.449 264.755 C 281.191 264.477,280.747 263.931,280.462 263.542 C 280.177 263.152,279.881 262.833,279.805 262.833 C 279.729 262.833,279.667 262.718,279.667 262.578 C 279.667 262.438,279.554 262.280,279.417 262.227 C 279.279 262.174,279.167 262.064,279.167 261.982 C 279.167 261.900,279.035 261.691,278.875 261.517 C 277.951 260.515,277.754 260.264,277.792 260.139 C 277.815 260.062,277.752 260.000,277.652 260.000 C 277.461 260.000,276.848 259.340,276.839 259.124 C 276.833 258.989,276.314 258.371,275.292 257.280 C 274.948 256.913,274.667 256.563,274.667 256.503 C 274.667 256.273,273.377 254.678,273.275 254.781 C 273.215 254.840,273.167 254.768,273.167 254.621 C 273.167 254.473,273.000 254.235,272.796 254.093 C 272.593 253.950,272.491 253.833,272.571 253.833 C 272.650 253.833,272.498 253.631,272.233 253.384 C 271.967 253.137,271.769 252.875,271.792 252.801 C 271.853 252.604,271.801 252.633,271.250 253.107 M203.750 310.601 C 202.931 311.325,199.754 314.036,198.011 315.500 C 197.301 316.096,195.939 317.253,194.985 318.072 C 194.031 318.891,193.221 319.582,193.186 319.608 C 193.072 319.693,193.065 322.167,193.179 322.167 C 193.240 322.167,193.299 322.578,193.311 323.081 C 193.336 324.199,193.371 324.383,193.583 324.539 C 193.681 324.611,193.647 324.664,193.500 324.667 C 193.278 324.671,193.278 324.690,193.500 324.833 C 193.682 324.951,193.690 324.996,193.532 324.997 C 193.412 324.999,193.362 325.079,193.422 325.175 C 193.481 325.271,193.559 325.845,193.595 326.451 C 193.632 327.057,193.699 327.673,193.744 327.818 C 193.790 327.964,193.869 328.721,193.919 329.500 C 193.998 330.733,194.097 331.583,194.161 331.583 C 194.180 331.583,194.289 332.759,194.407 334.250 C 194.443 334.708,194.550 335.721,194.645 336.500 C 194.740 337.279,194.853 338.404,194.896 339.000 C 194.939 339.596,195.052 340.721,195.147 341.500 C 195.386 343.457,195.803 347.361,195.913 348.667 C 195.963 349.262,196.036 349.938,196.076 350.167 C 196.116 350.396,196.190 351.146,196.241 351.833 C 196.292 352.521,196.408 353.646,196.498 354.333 C 196.589 355.021,196.695 356.033,196.734 356.583 C 196.773 357.133,196.882 358.221,196.977 359.000 C 197.072 359.779,197.268 361.579,197.413 363.000 C 197.850 367.289,198.039 368.874,198.168 369.323 L 198.290 369.750 198.388 369.333 C 198.441 369.104,198.519 368.429,198.560 367.833 C 198.632 366.796,198.719 365.941,199.248 361.083 C 199.797 356.038,199.867 355.377,199.931 354.583 C 199.968 354.125,200.106 352.850,200.238 351.750 C 200.592 348.806,200.854 346.372,200.929 345.333 C 201.024 344.022,201.306 341.239,201.581 338.917 C 201.907 336.152,202.162 333.744,202.262 332.482 C 202.336 331.556,202.432 330.656,202.740 328.000 C 202.777 327.679,202.855 326.854,202.913 326.167 C 202.971 325.479,203.056 324.692,203.102 324.417 C 203.205 323.803,203.280 323.121,203.422 321.500 C 203.482 320.813,203.560 320.025,203.595 319.750 C 203.630 319.475,203.697 318.725,203.744 318.083 C 203.791 317.442,203.868 316.668,203.916 316.365 C 203.963 316.061,204.047 315.236,204.102 314.531 C 204.319 311.771,204.481 310.332,204.596 310.146 C 204.797 309.821,204.378 310.047,203.750 310.601 " stroke="none" fill="#ecb370" fill-rule="evenodd"></path><path id="path4" d="M301.385 176.792 C 298.429 179.248,297.076 180.394,296.917 180.573 C 296.825 180.676,296.075 181.318,295.250 182.000 C 294.425 182.682,293.675 183.324,293.583 183.427 C 293.492 183.530,292.742 184.168,291.917 184.844 C 291.092 185.520,290.342 186.157,290.250 186.260 C 290.158 186.364,289.422 187.004,288.613 187.682 C 287.804 188.361,286.416 189.534,285.529 190.288 C 282.176 193.140,280.622 194.423,280.302 194.606 C 279.888 194.843,280.143 195.019,280.774 194.932 C 282.128 194.745,283.928 194.558,285.167 194.476 C 285.304 194.467,285.761 194.398,286.181 194.323 C 286.602 194.247,287.352 194.173,287.848 194.158 C 288.344 194.143,289.200 194.068,289.750 193.991 C 290.300 193.914,291.327 193.806,292.032 193.751 C 292.738 193.696,293.450 193.625,293.616 193.593 C 293.781 193.561,294.442 193.486,295.083 193.425 C 297.579 193.190,297.954 193.150,299.083 193.001 C 299.725 192.916,300.737 192.811,301.333 192.768 C 301.929 192.726,302.942 192.614,303.583 192.520 C 304.225 192.426,305.237 192.314,305.833 192.272 C 306.429 192.230,307.554 192.118,308.333 192.022 C 309.976 191.820,313.245 191.480,314.333 191.398 C 314.746 191.367,315.683 191.266,316.417 191.173 C 317.150 191.079,318.237 190.963,318.833 190.914 C 319.429 190.865,320.517 190.752,321.250 190.662 C 321.983 190.573,322.996 190.466,323.500 190.424 C 325.057 190.296,327.823 190.002,329.917 189.743 C 331.017 189.607,332.442 189.459,333.083 189.414 C 333.725 189.369,334.775 189.260,335.417 189.171 C 336.058 189.082,337.214 188.967,337.985 188.915 C 338.756 188.863,339.459 188.775,339.547 188.721 C 339.636 188.666,340.205 188.600,340.812 188.575 C 342.107 188.520,345.306 188.167,345.667 188.039 C 345.804 187.990,346.117 187.943,346.361 187.933 C 346.605 187.924,346.861 187.860,346.930 187.792 C 346.999 187.723,347.137 187.668,347.236 187.669 C 347.335 187.671,347.304 187.744,347.167 187.833 C 346.947 187.976,346.948 187.995,347.176 187.997 C 347.506 188.001,348.767 187.189,349.417 186.555 C 349.692 186.287,350.479 185.609,351.167 185.048 C 351.854 184.487,352.655 183.807,352.945 183.535 C 353.236 183.264,353.930 182.684,354.487 182.247 C 355.648 181.334,355.753 181.082,354.913 181.218 C 354.484 181.288,354.358 181.260,354.445 181.115 C 354.532 180.970,354.496 180.971,354.311 181.121 C 354.172 181.234,353.877 181.282,353.654 181.229 C 352.888 181.046,352.248 180.958,351.542 180.937 C 351.152 180.926,350.833 180.856,350.833 180.783 C 350.833 180.709,350.402 180.658,349.875 180.670 C 349.348 180.681,348.467 180.615,347.917 180.524 C 347.367 180.432,346.354 180.314,345.667 180.260 C 344.979 180.207,343.554 180.054,342.500 179.920 C 341.446 179.786,339.421 179.559,338.000 179.416 C 336.579 179.272,334.804 179.080,334.055 178.989 C 333.306 178.899,332.218 178.788,331.638 178.744 C 331.058 178.700,330.246 178.622,329.833 178.570 C 329.421 178.518,328.858 178.448,328.583 178.415 C 328.308 178.381,327.448 178.306,326.672 178.248 C 325.896 178.189,325.221 178.118,325.172 178.088 C 325.123 178.059,324.483 177.988,323.750 177.932 C 323.017 177.875,321.517 177.722,320.417 177.590 C 317.649 177.260,315.243 177.004,313.982 176.906 C 313.396 176.860,312.279 176.739,311.500 176.637 C 310.721 176.536,309.633 176.430,309.083 176.404 C 308.533 176.377,307.783 176.308,307.417 176.250 C 307.050 176.193,306.375 176.114,305.917 176.075 C 304.111 175.922,303.239 175.824,302.994 175.747 C 302.844 175.700,302.182 176.129,301.385 176.792 M357.833 181.564 C 357.833 181.715,358.483 181.780,358.690 181.649 C 358.844 181.551,358.743 181.504,358.375 181.503 C 358.077 181.501,357.833 181.529,357.833 181.564 M351.833 187.333 L 351.417 187.467 351.875 187.483 C 352.127 187.493,352.333 187.425,352.333 187.333 C 352.333 187.242,352.315 187.174,352.292 187.183 C 352.269 187.192,352.063 187.260,351.833 187.333 M275.708 195.282 C 275.869 195.323,276.131 195.323,276.292 195.282 C 276.452 195.240,276.321 195.205,276.000 195.205 C 275.679 195.205,275.548 195.240,275.708 195.282 M246.755 220.500 C 246.898 220.998,246.967 221.089,247.100 220.955 C 247.156 220.900,247.074 220.681,246.918 220.469 L 246.636 220.083 246.755 220.500 M246.888 223.216 C 245.888 224.041,243.404 226.146,241.656 227.648 C 240.974 228.233,240.004 229.066,239.500 229.499 C 238.996 229.932,238.058 230.720,237.417 231.250 C 236.775 231.780,236.175 232.299,236.083 232.403 C 235.992 232.507,235.354 233.051,234.667 233.612 C 233.979 234.174,233.238 234.803,233.020 235.010 L 232.623 235.387 233.186 235.685 C 233.496 235.848,233.919 236.059,234.125 236.153 C 234.331 236.248,234.500 236.406,234.500 236.506 C 234.500 236.605,234.565 236.646,234.645 236.597 C 234.725 236.547,234.969 236.658,235.187 236.842 C 235.405 237.026,235.833 237.381,236.138 237.630 C 236.442 237.879,236.817 238.201,236.971 238.344 C 237.124 238.488,237.736 238.975,238.330 239.428 C 238.924 239.880,239.599 240.424,239.830 240.636 C 240.061 240.849,240.569 241.256,240.958 241.540 C 241.348 241.824,241.667 242.119,241.667 242.195 C 241.667 242.271,241.745 242.333,241.841 242.333 C 241.937 242.333,242.192 242.502,242.409 242.708 C 242.625 242.915,242.998 243.233,243.238 243.417 C 243.479 243.600,243.767 243.829,243.879 243.926 C 243.991 244.022,244.983 244.831,246.083 245.722 C 247.183 246.613,248.244 247.491,248.440 247.671 C 248.636 247.852,248.874 248.000,248.968 248.000 C 249.062 248.000,249.164 248.069,249.194 248.154 C 249.225 248.239,250.150 249.029,251.250 249.909 C 252.350 250.790,253.512 251.726,253.833 251.991 C 254.154 252.255,254.942 252.899,255.583 253.422 C 256.225 253.945,256.775 254.439,256.806 254.521 C 256.837 254.602,256.930 254.626,257.014 254.575 C 257.098 254.523,257.167 254.550,257.167 254.635 C 257.167 254.720,257.448 254.980,257.792 255.213 C 258.135 255.446,258.620 255.831,258.868 256.068 C 259.116 256.306,259.356 256.500,259.402 256.500 C 259.448 256.500,259.804 256.802,260.192 257.172 C 260.581 257.542,261.000 257.805,261.125 257.757 C 261.249 257.710,261.305 257.745,261.249 257.835 C 261.193 257.926,261.231 258.000,261.333 258.000 C 261.436 258.000,261.466 258.094,261.400 258.208 C 261.334 258.323,261.343 258.359,261.421 258.289 C 261.498 258.218,261.810 258.402,262.114 258.696 C 262.418 258.991,262.667 259.176,262.667 259.107 C 262.667 259.039,262.853 259.184,263.081 259.430 L 263.495 259.877 263.789 259.527 C 263.951 259.335,264.615 258.744,265.265 258.214 C 266.437 257.258,269.840 254.350,270.000 254.167 C 270.567 253.520,271.635 252.866,271.830 253.046 C 271.952 253.158,271.835 252.950,271.569 252.583 C 271.303 252.217,271.045 251.879,270.995 251.833 C 270.946 251.787,270.608 251.375,270.244 250.917 C 269.881 250.458,269.542 250.046,269.491 250.000 C 269.440 249.954,268.588 248.904,267.597 247.667 C 266.606 246.429,265.611 245.192,265.386 244.917 C 265.161 244.642,264.776 244.159,264.530 243.845 C 264.284 243.530,263.669 242.780,263.163 242.178 C 262.657 241.576,261.768 240.483,261.189 239.750 C 259.518 237.635,257.543 235.229,257.042 234.697 C 256.927 234.576,256.833 234.425,256.832 234.363 C 256.831 234.301,256.569 233.974,256.249 233.636 C 255.929 233.298,255.665 232.961,255.664 232.886 C 255.662 232.811,255.463 232.563,255.222 232.333 C 254.980 232.104,254.500 231.542,254.155 231.083 C 253.809 230.625,253.352 230.052,253.138 229.809 C 252.925 229.567,252.375 228.899,251.917 228.326 C 251.458 227.752,250.915 227.103,250.708 226.884 C 250.502 226.664,250.333 226.435,250.333 226.373 C 250.333 226.312,250.182 226.109,249.996 225.923 C 249.323 225.246,248.503 224.077,248.502 223.792 C 248.501 223.631,248.421 223.500,248.325 223.500 C 248.229 223.500,248.057 223.278,247.943 223.007 L 247.736 222.515 246.888 223.216 M231.723 235.057 C 231.663 235.163,231.675 235.194,231.750 235.126 C 231.825 235.058,231.980 235.081,232.095 235.176 C 232.221 235.281,232.342 235.288,232.400 235.194 C 232.453 235.108,232.347 234.999,232.165 234.951 C 231.983 234.904,231.784 234.951,231.723 235.057 M210.611 251.444 C 210.550 251.506,210.500 251.706,210.500 251.889 C 210.500 252.307,210.720 252.111,210.753 251.663 C 210.780 251.298,210.771 251.284,210.611 251.444 M208.998 255.502 C 208.220 256.145,206.858 257.289,205.971 258.044 C 205.084 258.799,203.696 259.972,202.887 260.651 C 202.078 261.330,201.342 261.970,201.250 262.073 C 201.158 262.176,200.408 262.814,199.583 263.490 C 198.758 264.165,198.008 264.803,197.917 264.906 C 197.825 265.009,197.086 265.654,196.274 266.339 C 195.463 267.023,194.136 268.146,193.326 268.833 C 188.547 272.888,188.191 273.163,188.106 272.871 C 188.060 272.713,188.065 273.221,188.117 274.000 C 188.169 274.779,188.214 275.660,188.217 275.958 C 188.220 276.256,188.289 276.500,188.371 276.500 C 188.453 276.500,188.489 276.556,188.450 276.625 C 188.412 276.694,188.443 277.350,188.518 278.083 C 188.593 278.817,188.696 279.942,188.748 280.583 C 188.800 281.225,188.879 281.975,188.923 282.250 C 189.087 283.262,189.140 283.784,189.236 285.308 C 189.290 286.165,189.373 286.929,189.420 287.006 C 189.467 287.082,189.580 288.068,189.670 289.197 C 189.761 290.326,189.865 291.400,189.901 291.583 C 189.984 292.001,190.130 293.280,190.244 294.583 C 190.343 295.726,190.613 298.260,190.856 300.333 C 190.947 301.112,191.090 302.500,191.172 303.417 C 191.352 305.428,191.640 308.230,191.736 308.917 C 191.809 309.440,191.925 310.618,192.095 312.581 C 192.150 313.221,192.234 313.808,192.281 313.884 C 192.377 314.038,192.538 315.784,192.535 316.625 C 192.534 316.922,192.582 317.137,192.642 317.101 C 192.701 317.066,192.768 317.643,192.791 318.384 C 192.825 319.494,193.145 320.694,193.175 319.825 C 193.180 319.692,193.895 318.983,194.765 318.250 C 195.634 317.517,197.010 316.354,197.822 315.667 C 198.634 314.979,199.963 313.859,200.774 313.178 C 201.586 312.497,202.588 311.633,203.000 311.259 C 203.412 310.884,203.956 310.418,204.209 310.223 C 204.639 309.890,204.671 309.776,204.723 308.379 C 204.754 307.560,204.825 306.815,204.882 306.723 C 204.938 306.632,205.025 306.151,205.076 305.654 C 205.126 305.157,205.212 304.300,205.267 303.750 C 205.323 303.200,205.398 302.525,205.435 302.250 C 205.471 301.975,205.539 301.262,205.584 300.667 C 205.629 300.071,205.703 299.396,205.749 299.167 C 205.826 298.776,205.878 298.287,206.089 296.000 C 206.135 295.496,206.244 294.521,206.330 293.833 C 206.417 293.146,206.528 292.133,206.579 291.583 C 206.629 291.033,206.741 289.908,206.827 289.083 C 207.194 285.593,207.526 282.491,207.674 281.167 C 207.761 280.387,207.911 278.925,208.007 277.917 C 208.102 276.908,208.215 275.896,208.257 275.667 C 208.299 275.438,208.374 274.688,208.423 274.000 C 208.472 273.313,208.582 272.262,208.668 271.667 C 208.754 271.071,208.866 270.058,208.917 269.417 C 209.027 268.033,209.138 266.967,209.254 266.167 C 209.356 265.466,209.493 263.625,209.545 262.250 C 209.566 261.700,209.629 261.212,209.685 261.167 C 209.740 261.121,209.843 260.483,209.913 259.750 C 209.982 259.017,210.066 258.192,210.098 257.917 C 210.130 257.642,210.197 256.967,210.246 256.417 C 210.295 255.867,210.375 255.173,210.425 254.875 C 210.539 254.187,210.648 254.140,208.998 255.502 M265.857 261.819 C 266.073 261.994,266.278 262.111,266.312 262.077 C 266.412 261.977,265.874 261.500,265.660 261.500 C 265.552 261.500,265.640 261.644,265.857 261.819 " stroke="none" fill="#ecbc74" fill-rule="evenodd"></path></g></svg>